# Blender v2.93.4 OBJ File: 'cube_with_hat_render.blend'
# www.blender.org
mtllib cube_with_hat_render.mtl
o Cube.001
v -1.000000 1.000000 1.000000
v 1.000000 -1.000000 1.000000
v 1.000000 1.000000 1.000000
v -1.000000 -1.000000 -1.000000
v 1.000000 -1.000000 -1.000000
v -1.000000 -1.000000 1.000000
v -1.000000 1.000000 -1.000000
v 1.000000 1.000000 -1.000000
vt 0.875000 0.500000
vt 0.625000 0.750000
vt 0.625000 0.500000
vt 0.375000 1.000000
vt 0.375000 0.750000
vt 0.625000 0.000000
vt 0.375000 0.250000
vt 0.375000 0.000000
vt 0.375000 0.500000
vt 0.125000 0.750000
vt 0.125000 0.500000
vt 0.625000 0.250000
vt 0.875000 0.750000
vt 0.625000 1.000000
vn 0.0000 -0.0000 1.0000
vn 0.0000 -1.0000 -0.0000
vn -1.0000 0.0000 0.0000
vn 0.0000 0.0000 -1.0000
vn 1.0000 -0.0000 0.0000
vn 0.0000 1.0000 0.0000
usemtl Default_OBJ
s 1
f 1/1/1 2/2/1 3/3/1
f 2/2/2 4/4/2 5/5/2
f 6/6/3 7/7/3 4/8/3
f 8/9/4 4/10/4 7/11/4
f 3/3/5 5/5/5 8/9/5
f 1/12/6 8/9/6 7/7/6
f 1/1/1 6/13/1 2/2/1
f 2/2/2 6/14/2 4/4/2
f 6/6/3 1/12/3 7/7/3
f 8/9/4 5/5/4 4/10/4
f 3/3/5 2/2/5 5/5/5
f 1/12/6 3/3/6 8/9/6
o Cube.002
v -0.500000 -0.500000 1.400000
v 0.500000 -0.500000 1.000000
v 0.500000 -0.500000 1.400000
v -0.500000 0.500000 1.000000
v 0.500000 0.500000 1.000000
v -0.500000 -0.500000 1.000000
v -0.500000 0.500000 1.400000
v 0.500000 0.500000 1.400000
vt 0.875000 0.500000
vt 0.625000 0.750000
vt 0.625000 0.500000
vt 0.375000 1.000000
vt 0.375000 0.750000
vt 0.625000 0.000000
vt 0.375000 0.250000
vt 0.375000 0.000000
vt 0.375000 0.500000
vt 0.125000 0.750000
vt 0.125000 0.500000
vt 0.625000 0.250000
vt 0.875000 0.750000
vt 0.625000 1.000000
vn 0.0000 -1.0000 -0.0000
vn 0.0000 0.0000 -1.0000
vn -1.0000 0.0000 0.0000
vn 0.0000 1.0000 0.0000
vn 1.0000 0.0000 0.0000
vn 0.0000 -0.0000 1.0000
usemtl Default_OBJ.001
s 1
f 9/15/7 10/16/7 11/17/7
f 10/16/8 12/18/8 13/19/8
f 14/20/9 15/21/9 12/22/9
f 16/23/10 12/24/10 15/25/10
f 11/17/11 13/19/11 16/23/11
f 9/26/12 16/23/12 15/21/12
f 9/15/7 14/27/7 10/16/7
f 10/16/8 14/28/8 12/18/8
f 14/20/9 9/26/9 15/21/9
f 16/23/10 13/19/10 12/24/10
f 11/17/11 10/16/11 13/19/11
f 9/26/12 11/17/12 16/23/12
